# xmcd
#
# Track frame offsets: 
#        150
#        12991
#        24735
#        38266
#        51475
#        65094
#        77262
#        90510
#        103684
#        116839
#        131139
#        145309
#        157945
#        171280
#        184017
#        196508
#        209654
#        221332
#        234283
#        246766
#        259938
#        272251
#        282808
#        295925
#        309292
#        321416
#
# Disc length: 4466 seconds
#
# Revision: 2
# Processed by: cddbd v1.5.2PL0 Copyright (c) Steve Scherf et al.
# Submitted via: ExactAudioCopy v0.99pb4
#
DISCID=6f11701a
DTITLE=Mildred Bailey - Mrs. Swing CD3
DYEAR=2005
DGENRE=Jazz Vocals
TTITLE0=The Weekend Of A Private Secretary
TTITLE1=Please Be Kind
TTITLE2=Bewildered
TTITLE3=I Can't Face The Music
TTITLE4=Don't Be That Way
TTITLE5=At Your Beck And Call
TTITLE6=Says My Heart
TTITLE7=I Let A Song Go Out Of My Heart
TTITLE8=Rock It For Me
TTITLE9=If You Were In My Place
TTITLE10=Savin' Myself For You
TTITLE11=You Leave Me Breathless
TTITLE12=Washboard Blues
TTITLE13=My Melancholy Baby
TTITLE14=So Help Me
TTITLE15=Small Fry
TTITLE16=As Long As You Live
TTITLE17=Put Your Heart In A Song
TTITLE18=The Sunny Side Of Things
TTITLE19=Garden Of The Moon
TTITLE20=Love Is Where You Find It
TTITLE21=I Used To Be Color Blind
TTITLE22=This Is Madness
TTITLE23=My Reverie
TTITLE24=What Have You Got That Gets Me
TTITLE25=Old Folks
EXTD=YEAR: 1938
EXTT0=
EXTT1=
EXTT2=
EXTT3=
EXTT4=
EXTT5=
EXTT6=
EXTT7=
EXTT8=
EXTT9=
EXTT10=
EXTT11=
EXTT12=
EXTT13=
EXTT14=
EXTT15=
EXTT16=
EXTT17=
EXTT18=
EXTT19=
EXTT20=
EXTT21=
EXTT22=
EXTT23=
EXTT24=
EXTT25=
PLAYORDER=
